<?xml version="1.0" encoding="UTF-8"?>
<svg xmlns="http://www.w3.org/2000/svg" width="128" height="128" viewBox="0 0 128 128">
  <rect x="14" y="26" width="100" height="76" rx="14" fill="#1c1c1c"/>
  <rect x="22" y="34" width="84" height="60" rx="10" fill="#2f2f2f"/>
  <circle cx="64" cy="64" r="18" fill="#ffffff" opacity="0.12"/>
  <path d="M64 46a18 18 0 1 0 0 36a18 18 0 0 0 0-36zm0 8a10 10 0 1 1 0 20a10 10 0 0 1 0-20z" fill="#ffffff" opacity="0.8"/>
  <path d="M38 54h12v4H38zm40 0h12v4H78zM38 70h12v4H38zm40 0h12v4H78z" fill="#ffffff" opacity="0.45"/>
</svg>

